{"title":"Victor.Frankenstein.2015.WEBRiP.XViD.ReLeNTLesS","uid":13601633,"size":1624470571,"categoryP":"video","categoryS":"movies","magnet":"?xt=urn:btih:149f188fe32a2ddab9a1f6ba40828f4c9d9f27a9&amp;dn=Victor.Frankenstein.2015.WEBRiP.XViD.ReLeNTLesS&amp;tr=udp%3A%2F%2Ftracker.leechers-paradise.org%3A6969&amp;tr=udp%3A%2F%2Fzer0day.ch%3A1337&amp;tr=udp%3A%2F%2Fopen.demonii.com%3A1337&amp;tr=udp%3A%2F%2Ftracker.coppersurfer.tk%3A6969&amp;tr=udp%3A%2F%2Fexodus.desync.com%3A6969","seeders":0,"leechers":4,"uploader":"Supernova","files":4,"time":1455869606,"description":"https://www.boltimg.com/image/l9C\r\n\r\nVictor Frankenstein 2015 WEBRiP XViD ReLeNTLesS\r\n\r\n\r\n\r\n\r\n\r\niMDB: http://www.imdb.com/title/tt1976009/\r\n\r\nGENRAL iNF0\r\nGeneral\r\nComplete name                            : Victor.Frankenstein.2015.WEBRiP.XViD.ReLeNTLesS.avi\r\nFormat                                   : AVI\r\nFormat/Info                              : Audio Video Interleave\r\nFile size                                : 1.49 GiB\r\nDuration                                 : 1h 50mn\r\nOverall bit rate                         : 1 938 Kbps\r\n\r\nVideo\r\nID                                       : 0\r\nFormat                                   : MPEG-4 Visual\r\nFormat profile                           : Advanced   \r\nFormat settings, BVOP                    : 1\r\nFormat settings, QPel                    : No\r\nFormat settings, GMC                     : No warppoints\r\nFormat settings, Matrix                  : Default (H.263)\r\nCodec ID                                 : XVID\r\nCodec ID/Hint                            : XviD\r\nDuration                                 : 1h 50mn\r\nBit rate                                 : 1 708 Kbps\r\nWidth                                    : 720 pixels\r\nHeight                                   : 304 pixels\r\nDisplay aspect ratio                     : 2.35:1\r\nFrame rate                               : 23.976 fps\r\nColor space                              : YUV\r\nChroma subsampling                       : 4:2:0\r\nBit depth                                : 8 bits\r\nScan type                                : Progressive\r\nCompression mode                         : Lossy\r\nBits/(Pixel*Frame)                       : 0.325\r\nStream size                              : 1.32 GiB (88%)\r\nWriting library                          : XviD 67\r\n\r\nAudio\r\nID                                       : 1\r\nFormat                                   : AC-3\r\nFormat/Info                              : Audio Coding 3\r\nMode extension                           : CM (complete main)\r\nFormat settings, Endianness              : Big\r\nCodec ID                                 : 2000\r\nDuration                                 : 1h 49mn\r\nBit rate mode                            : Constant\r\nBit rate                                 : 224 Kbps\r\nChannel(s)                               : 2 channels\r\nChannel positions                        : Front: L R\r\nSampling rate                            : 48.0 KHz\r\nBit depth                                : 16 bits\r\nCompression mode                         : Lossy\r\nStream size                              : 176 MiB (11%)\r\nAlignment                                : Aligned on interleaves\r\nInterleave, duration                     : 64 ms (1.54 video frames)\r\nInterleave, preload duration             : 192 ms\r\nTitle                                    : Victor.Frankenstein.2015.ReLeNTLesS.audio..2.0.English\r\nSample Included                          : Yes\r\nSource                                   : 1080 WEB-DL\r\n\r\n\r\nPL0T\r\nTold from Igor's perspective, we see the troubled young assistant's dark origins, his redemptive friendship with the young medical student Viktor Von Frankenstein, and become eyewitnesses to the emergence of how Frankenstein became the man - and the legend - we know today. \r\n\r\nCAST\r\nDirector: Paul McGuigan\r\nWriters: Max Landis (screenplay), Max Landis (screen story)\r\nStars: Daniel Radcliffe, James McAvoy, Jessica Brown Findlay\r\n\r\nN0TE\r\nResized, Degrained then sharpened.\r\n\r\nSCREENS\r\n \nhttps://www.boltimg.com/image/XaG \nhttps://www.boltimg.com/image/t7F \nhttps://www.boltimg.com/image/zjb \nhttps://www.boltimg.com/image/5HN","torrent":{"xt":"urn:btih:149f188fe32a2ddab9a1f6ba40828f4c9d9f27a9","amp;dn":"Victor.Frankenstein.2015.WEBRiP.XViD.ReLeNTLesS","amp;tr":["udp%3A%2F%2Ftracker.leechers-paradise.org%3A6969","udp%3A%2F%2Fzer0day.ch%3A1337","udp%3A%2F%2Fopen.demonii.com%3A1337","udp%3A%2F%2Ftracker.coppersurfer.tk%3A6969","udp%3A%2F%2Fexodus.desync.com%3A6969"],"infoHash":"149f188fe32a2ddab9a1f6ba40828f4c9d9f27a9","infoHashBuffer":{"type":"Buffer","data":[20,159,24,143,227,42,45,218,185,161,246,186,64,130,143,76,157,159,39,169]},"announce":[],"urlList":[]}}